M48
; DRILL file {KiCad 9.0.6} date 2025-12-05T20:55:34+0800
; FORMAT={-:-/ absolute / metric / decimal}
; #@! TF.CreationDate,2025-12-05T20:55:34+08:00
; #@! TF.GenerationSoftware,Kicad,Pcbnew,9.0.6
; #@! TF.FileFunction,NonPlated,1,2,NPTH
FMAT,2
METRIC
; #@! TA.AperFunction,NonPlated,NPTH,ComponentDrill
T1C1.700
; #@! TA.AperFunction,NonPlated,NPTH,ComponentDrill
T2C4.000
%
G90
G05
T1
X39.37Y-57.15
X39.37Y-82.55
X39.37Y-107.95
X39.37Y-133.35
X49.53Y-57.15
X49.53Y-82.55
X49.53Y-107.95
X49.53Y-133.35
X64.77Y-57.15
X64.77Y-82.55
X64.77Y-107.95
X64.77Y-133.35
X74.93Y-57.15
X74.93Y-82.55
X74.93Y-107.95
X74.93Y-133.35
X90.17Y-57.15
X90.17Y-82.55
X90.17Y-107.95
X90.17Y-133.35
X100.33Y-57.15
X100.33Y-82.55
X100.33Y-107.95
X100.33Y-133.35
X115.57Y-57.15
X115.57Y-82.55
X115.57Y-107.95
X115.57Y-133.35
X125.73Y-57.15
X125.73Y-82.55
X125.73Y-107.95
X125.73Y-133.35
T2
X44.45Y-57.15
X44.45Y-82.55
X44.45Y-107.95
X44.45Y-133.35
X69.85Y-57.15
X69.85Y-82.55
X69.85Y-107.95
X69.85Y-133.35
X95.25Y-57.15
X95.25Y-82.55
X95.25Y-107.95
X95.25Y-133.35
X120.65Y-57.15
X120.65Y-82.55
X120.65Y-107.95
X120.65Y-133.35
M30
