M48
; DRILL file {KiCad 9.0.6} date 2025-12-05T20:55:34+0800
; FORMAT={-:-/ absolute / metric / decimal}
; #@! TF.CreationDate,2025-12-05T20:55:34+08:00
; #@! TF.GenerationSoftware,Kicad,Pcbnew,9.0.6
; #@! TF.FileFunction,Plated,1,2,PTH
FMAT,2
METRIC
; #@! TA.AperFunction,Plated,PTH,ViaDrill
T1C0.300
; #@! TA.AperFunction,Plated,PTH,ComponentDrill
T2C0.800
; #@! TA.AperFunction,Plated,PTH,ComponentDrill
T3C1.000
; #@! TA.AperFunction,Plated,PTH,ComponentDrill
T4C1.500
%
G90
G05
T1
X38.0Y-117.4
X40.64Y-23.585
X41.725Y-92.075
X42.4Y-117.4
X42.7Y-48.5
X42.7Y-73.9
X42.7Y-99.3
X42.7Y-124.7
X48.3Y-43.95
X50.85Y-43.0
X67.3Y-92.075
X68.1Y-48.5
X68.1Y-73.9
X68.1Y-99.3
X68.1Y-124.7
X68.2Y-117.4
X92.7Y-92.05
X93.4Y-117.4
X93.5Y-48.5
X93.5Y-73.9
X93.5Y-99.3
X93.5Y-124.7
X118.05Y-92.075
X118.8Y-117.4
X118.9Y-48.5
X118.9Y-73.9
X118.9Y-99.3
X118.9Y-124.7
X126.0Y-126.569
X127.1Y-68.5
X127.15Y-77.099
X127.15Y-92.6
X127.15Y-102.7
X127.15Y-118.85
T2
X131.445Y-46.99
X131.445Y-54.61
X131.445Y-72.39
X131.445Y-80.01
X131.445Y-97.79
X131.445Y-105.41
X131.445Y-123.19
X131.445Y-130.81
T3
X100.165Y-28.69
X100.165Y-31.23
X100.165Y-33.77
X100.165Y-36.31
T4
X40.64Y-54.61
X40.64Y-80.01
X40.64Y-105.41
X40.64Y-130.81
X46.99Y-52.07
X46.99Y-77.47
X46.99Y-102.87
X46.99Y-128.27
X66.04Y-54.61
X66.04Y-80.01
X66.04Y-105.41
X66.04Y-130.81
X72.39Y-52.07
X72.39Y-77.47
X72.39Y-102.87
X72.39Y-128.27
X91.44Y-54.61
X91.44Y-80.01
X91.44Y-105.41
X91.44Y-130.81
X97.79Y-52.07
X97.79Y-77.47
X97.79Y-102.87
X97.79Y-128.27
X116.84Y-54.61
X116.84Y-80.01
X116.84Y-105.41
X116.84Y-130.81
X123.19Y-52.07
X123.19Y-77.47
X123.19Y-102.87
X123.19Y-128.27
M30
